# xmcd
#
# Track frame offsets: 
#        150
#        16297
#        33125
#        58387
#        77397
#        95672
#        111622
#        127702
#        145252
#        166920
#        186665
#        205697
#        223477
#        246455
#        266782
#
# Disc length: 3698 seconds
#
# Revision: 7
# Processed by: cddbd v1.5.2PL0 Copyright (c) Steve Scherf et al.
# Submitted via: ExactAudioCopyFreeDBPlugin 1.0
#
DISCID=e30e700f
DTITLE=GReeeeN - 塩、コショウ
DYEAR=2009
DGENRE=J-pop
TTITLE0=光
TTITLE1=口笛
TTITLE2=遥か
TTITLE3=歩み
TTITLE4=いつまでも
TTITLE5=旅人
TTITLE6=ハレルヤ!!!!
TTITLE7=STORY
TTITLE8=刹那
TTITLE9=冬のある日の唄
TTITLE10=扉
TTITLE11=空への手紙
TTITLE12=父母唄
TTITLE13=キセキ
TTITLE14=髭、コソウ
EXTD=YEAR: 2009
EXTT0=
EXTT1=
EXTT2=
EXTT3=
EXTT4=
EXTT5=
EXTT6=
EXTT7=
EXTT8=
EXTT9=
EXTT10=
EXTT11=
EXTT12=
EXTT13=
EXTT14=
PLAYORDER=
